<?xml version="1.0" standalone="no"?>
<!DOCTYPE svg PUBLIC "-//W3C//DTD SVG 1.1//EN" "http://www.w3.org/Graphics/SVG/1.1/DTD/svg11.dtd" >
<svg xmlns="http://www.w3.org/2000/svg">
  <metadata>Created by iconfont</metadata>
  <defs>
  <font id="iconfont" horiz-adv-x="1024">
    <font-face
      font-family="iconfont"
      font-weight="400"
      font-stretch="normal"
      units-per-em="1024"
      ascent="896"
      descent="-128"
    />
      <missing-glyph />
      
      <glyph glyph-name="shenhezhongxin" unicode="&#58935;" d="M878.08 896H145.92A92.16 92.16 0 0 1 53.76 803.84v-839.68a92.16 92.16 0 0 1 92.16-92.16h510.3104a40.96 40.96 0 1 1 0 81.92H145.92a10.24 10.24 0 0 0-10.24 10.24V803.84a10.24 10.24 0 0 0 10.24 10.24h732.16a10.24 10.24 0 0 0 10.24-10.24v-505.9584a40.96 40.96 0 0 1 81.92 0V803.84a92.16 92.16 0 0 1-92.16 92.16zM268.8 604.16h486.4a40.96 40.96 0 0 1 0 81.92H268.8a40.96 40.96 0 0 1 0-81.92zM822.6304 112.64a168.96 168.96 0 1 1-56.0128-59.8528l118.784-118.784a40.96 40.96 0 0 1 57.9072 57.9584z m-147.6608-5.12a87.04 87.04 0 1 0 87.04 87.04 87.04 87.04 0 0 0-87.04-87.04zM268.8 445.44h486.4a40.96 40.96 0 0 1 0 81.92H268.8a40.96 40.96 0 0 1 0-81.92z"  horiz-adv-x="1024" />
      
      <glyph glyph-name="tubiaowenjian" unicode="&#58988;" d="M147.2 896h521.984L864 691.2v-768a51.2 51.2 0 0 0-51.2-51.2H147.2A51.2 51.2 0 0 0 96-76.8V844.8A51.2 51.2 0 0 0 147.2 896zM669.184 896L864 691.2H710.4a51.2 51.2 0 0 0-51.2 51.2V896h9.984zM211.2 512h665.6c34.112 0 51.2-17.088 51.2-51.2V256c0-34.112-17.088-51.2-51.2-51.2H211.2c-34.112 0-51.2 17.088-51.2 51.2V460.8c0 34.112 17.088 51.2 51.2 51.2zM261.888 256l47.104 70.656L356.096 256h36.608l-65.792 94.464 61.696 88.32H352l-43.008-64.512-43.008 64.512h-36.608l61.184-88.32L225.28 256h36.608z m278.528 0v25.6H441.6V438.784h-29.696V256h128.512z m90.624-3.584c23.296 0 41.472 4.864 54.272 14.08 12.8 9.472 19.2 22.528 19.2 38.912 0 16.896-7.936 29.952-23.808 39.424-7.168 4.096-23.04 10.24-47.872 17.92a257.28 257.28 0 0 0-31.232 11.264c-8.704 4.608-12.8 11.008-12.8 18.688 0 8.704 3.584 15.104 11.264 18.944 6.144 3.328 14.848 4.864 26.368 4.864 13.312 0 23.552-2.304 30.208-7.424 6.656-4.864 11.52-13.056 14.08-24.32h29.696c-1.792 19.968-9.216 34.816-22.016 44.288-12.032 8.96-28.928 13.312-50.432 13.312-19.712 0-35.84-4.352-48.64-13.312a43.328 43.328 0 0 1-20.48-38.144c0-16.128 6.912-28.416 20.992-36.864 5.376-3.072 19.456-8.192 41.984-15.36 20.224-6.144 32-10.24 35.584-12.032 11.264-5.632 17.152-13.312 17.152-23.04 0-7.68-4.096-13.568-11.776-18.176-7.68-4.352-18.432-6.656-31.744-6.656-15.104 0-26.112 2.816-33.28 7.936-7.936 5.888-12.8 15.872-14.848 29.696h-29.696c1.28-23.296 9.728-40.192 25.088-50.944 12.544-8.704 30.208-13.056 52.736-13.056zM750.08 256l47.104 70.656L844.288 256h36.608l-65.792 94.464 61.696 88.32h-36.608l-43.008-64.512-43.008 64.512h-36.608l61.184-88.32L713.472 256h36.608z"  horiz-adv-x="1024" />
      
      <glyph glyph-name="renwuzhongxin" unicode="&#58936;" d="M880.64 896H143.36A92.16 92.16 0 0 1 51.2 803.84v-839.68a92.16 92.16 0 0 1 92.16-92.16h737.28a92.16 92.16 0 0 1 92.16 92.16V803.84a92.16 92.16 0 0 1-92.16 92.16z m10.24-931.84a10.24 10.24 0 0 0-10.24-10.24H143.36a10.24 10.24 0 0 0-10.24 10.24V803.84a10.24 10.24 0 0 0 10.24 10.24h737.28a10.24 10.24 0 0 0 10.24-10.24zM266.24 645.12m-40.96 0a40.96 40.96 0 1 1 81.92 0 40.96 40.96 0 1 1-81.92 0ZM752.64 686.08H404.48a40.96 40.96 0 0 1 0-81.92h348.16a40.96 40.96 0 0 1 0 81.92zM266.24 445.44m-40.96 0a40.96 40.96 0 1 1 81.92 0 40.96 40.96 0 1 1-81.92 0ZM752.64 486.4H404.48a40.96 40.96 0 0 1 0-81.92h348.16a40.96 40.96 0 0 1 0 81.92zM266.24 245.76m-40.96 0a40.96 40.96 0 1 1 81.92 0 40.96 40.96 0 1 1-81.92 0ZM752.64 286.72H404.48a40.96 40.96 0 0 1 0-81.92h348.16a40.96 40.96 0 0 1 0 81.92z"  horiz-adv-x="1024" />
      
      <glyph glyph-name="yichangguanli1" unicode="&#58985;" d="M512 896a512 512 0 1 1 512-512A512.5632 512.5632 0 0 1 512 896z m0-942.08a430.08 430.08 0 1 0 430.08 430.08 430.5408 430.5408 0 0 0-430.08-430.08zM512 215.04a40.96 40.96 0 0 1 40.96 40.96V655.36a40.96 40.96 0 0 1-81.92 0v-399.36a40.96 40.96 0 0 1 40.96-40.96zM512 112.64m-40.96 0a40.96 40.96 0 1 1 81.92 0 40.96 40.96 0 1 1-81.92 0Z"  horiz-adv-x="1024" />
      
      <glyph glyph-name="shujuzidian" unicode="&#58986;" d="M224.1024 137.1648h639.3344a39.5264 39.5264 0 0 1 8.6016 0.9216 39.5264 39.5264 0 0 1 8.6016-0.9216 92.16 92.16 0 0 1 92.16 92.16v573.44a92.16 92.16 0 0 1-92.16 92.16H143.36a92.16 92.16 0 0 1-92.16-92.16v-714.5984a41.5744 41.5744 0 0 1 2.3552-13.6192 172.8512 172.8512 0 0 1 170.5472-201.2672H931.84a40.96 40.96 0 0 1 0 81.92H224.1024a90.9824 90.9824 0 0 0 0 181.9648zM143.36 812.8h737.28a10.24 10.24 0 0 0 10.24-10.24v-573.44a10.24 10.24 0 0 0-10.24-10.24 39.5264 39.5264 0 0 1-8.6016-0.9216 39.5264 39.5264 0 0 1-8.6016 0.9216H224.1024A171.8272 171.8272 0 0 1 133.12 193.1264v609.28a10.24 10.24 0 0 0 10.24 10.3936zM230.4 309.8112a40.96 40.96 0 0 1 56.832 11.3152l113.5616 169.984 149.2992-112.64a60.9792 60.9792 0 0 1 87.7056 15.36l163.2256 248.4736A40.96 40.96 0 0 1 732.16 686.9504l-150.7328-229.7856L434.176 568.32a63.2832 63.2832 0 0 1-90.6752-15.36l-124.6208-186.3168a40.96 40.96 0 0 1 11.52-56.832z"  horiz-adv-x="1024" />
      
      <glyph glyph-name="dongtaimoxing" unicode="&#58987;" d="M431.3088-46.08h-281.6a10.24 10.24 0 0 0-10.24 10.24V803.84a10.24 10.24 0 0 0 10.24 10.24h643.584a10.24 10.24 0 0 0 10.24-10.24v-340.48a40.96 40.96 0 0 1 81.92 0V803.84a92.16 92.16 0 0 1-92.16 92.16H149.8624a92.16 92.16 0 0 1-92.16-92.16v-839.68a92.16 92.16 0 0 1 92.16-92.16h281.6a40.96 40.96 0 1 1 0 81.92zM697.4976 670.72a40.96 40.96 0 0 1-40.96 40.96h-384a40.96 40.96 0 1 1 0-81.92h384a40.96 40.96 0 0 1 40.96 40.96zM589.9776 396.8a40.96 40.96 0 0 1-40.96 40.96h-276.48a40.96 40.96 0 1 1 0-81.92h276.48a40.96 40.96 0 0 1 40.96 40.96zM272.5376 163.84a40.96 40.96 0 1 1 0-81.92h122.88a40.96 40.96 0 1 1 0 81.92zM948.7872 284.6208L812.544 363.52a92.416 92.416 0 0 1-92.16 0l-136.2432-78.6432a92.16 92.16 0 0 1-46.08-79.8208v-157.3376a92.16 92.16 0 0 1 46.08-79.8208l136.2432-78.6432a92.16 92.16 0 0 1 92.16 0l136.2432 78.6432a92.4672 92.4672 0 0 1 46.08 79.8208V204.8a92.16 92.16 0 0 1-46.08 79.8208z m-35.84-237.1584a10.24 10.24 0 0 0-5.12-8.8576l-136.2432-78.6944a10.24 10.24 0 0 0-10.24 0l-136.2432 78.6944a10.24 10.24 0 0 0-5.12 8.8576V204.8a10.24 10.24 0 0 0 5.12 8.8576l136.2432 78.6944a10.24 10.24 0 0 0 5.12 1.3824 10.24 10.24 0 0 0 5.12-1.3824l136.2432-78.6944a10.24 10.24 0 0 0 5.12-8.8576zM766.464 126.1568m-69.376 0a69.376 69.376 0 1 1 138.752 0 69.376 69.376 0 1 1-138.752 0Z"  horiz-adv-x="1024" />
      
      <glyph glyph-name="caidanguanli" unicode="&#58944;" d="M268.929293 896h-41.373737A227.814141 227.814141 0 0 1 0 668.444444v-41.373737a227.814141 227.814141 0 0 1 227.555556-227.555555h175.838383a93.090909 93.090909 0 0 1 93.090909 93.090909V668.444444A227.814141 227.814141 0 0 1 268.929293 896z m144.808081-403.393939a10.343434 10.343434 0 0 0-10.343435-10.343435H227.555556a144.808081 144.808081 0 0 0-144.808081 144.808081v41.373737a144.808081 144.808081 0 0 0 144.808081 144.808081h41.373737a144.808081 144.808081 0 0 0 144.808081-144.808081zM403.393939 368.484848H227.555556a227.814141 227.814141 0 0 1-227.555556-227.555555v-41.373737a227.814141 227.814141 0 0 1 227.555556-227.555556h41.373737a227.814141 227.814141 0 0 1 227.555555 227.555556v175.838383a93.090909 93.090909 0 0 1-93.090909 93.090909z m10.343435-268.929292a144.808081 144.808081 0 0 0-144.808081-144.808081h-41.373737a144.808081 144.808081 0 0 0-144.808081 144.808081v41.373737a144.808081 144.808081 0 0 0 144.808081 144.808081h175.838383a10.343434 10.343434 0 0 0 10.343435-10.343435zM796.444444 896h-41.373737a227.814141 227.814141 0 0 1-227.555555-227.555556v-175.838383a93.090909 93.090909 0 0 1 93.090909-93.090909h175.838383a227.814141 227.814141 0 0 1 227.555556 227.555555v41.373737a227.814141 227.814141 0 0 1-227.555556 227.555556z m144.808081-268.929293a144.808081 144.808081 0 0 0-144.808081-144.808081h-175.838383a10.343434 10.343434 0 0 0-10.343435 10.343435V668.444444a144.808081 144.808081 0 0 0 144.808081 144.808081h41.373737a144.808081 144.808081 0 0 0 144.808081-144.808081zM796.444444 368.484848h-175.838383a93.090909 93.090909 0 0 1-93.090909-93.090909v-175.838383a227.814141 227.814141 0 0 1 227.555555-227.555556h41.373737a227.814141 227.814141 0 0 1 227.555556 227.555556v41.373737a227.814141 227.814141 0 0 1-227.555556 227.555555z m144.808081-268.929292a144.808081 144.808081 0 0 0-144.808081-144.808081h-41.373737a144.808081 144.808081 0 0 0-144.808081 144.808081v175.838383a10.343434 10.343434 0 0 0 10.343435 10.343435h175.838383a144.808081 144.808081 0 0 0 144.808081-144.808081z"  horiz-adv-x="1024" />
      
      <glyph glyph-name="guojihuaguanli" unicode="&#58945;" d="M1017.068585 467.242409A511.904376 511.904376 0 1 1 511.921347-127.846429a515.743659 515.743659 0 0 1 83.593984 6.859519 510.112711 510.112711 0 0 1 262.504564 127.51538A40.95235 40.95235 0 0 1 802.37589 66.677234a430.51158 430.51158 0 1 0 76.785656 93.115406 40.95235 40.95235 0 0 1 69.926138-42.692825 511.904376 511.904376 0 0 1 67.980901 350.142594zM415.888086 215.794979c9.623802 8.13928 13.463085 14.128561 21.14165 30.35593s19.298795 40.389255 21.244032 50.524962 68.339234 38.495209 52.982103 54.620196-48.119011 28.359502-61.684478 32.352357-83.798746 1.996427-87.74041 18.274986-36.601163 10.238088-48.170201 3.992854-48.119011-18.274986-51.958295-3.992854 5.119044 36.396401 2.866665 46.480918c3.839283 16.124988-16.43213 26.260695-31.789262 18.274986s-8.702374 7.985708 0.921428 14.128561S267.435816 517.153085 271.32629 506.914998s28.871407-3.992854 36.601163-1.996427 19.298795 7.985708 23.138077-12.080943 38.495209-42.539254 38.495209-34.399975 7.729756 36.396401 1.996428 48.528535-11.620229 22.21665-11.62023 22.21665 29.895216 0 39.570208 22.21665c25.595219 59.022575 50.115438-6.091662 39.519018 48.528535 3.429759-17.763082 43.358301 44.48449 24.059506 52.572579s-0.972618 47.504726-47.248774 51.497581-67.417806-11.108325-67.417806-11.108325l3.890473-14.128561a18.070224 18.070224 0 0 0 3.839283-12.132134c0-8.13928-27.028551-6.142853-27.028551-6.142852s-5.733329 12.285705-3.839283 20.476175a205.376036 205.376036 0 0 0 7.780946 22.21665l15.357132 22.21665a60.86543 60.86543 0 0 0 17.353558-3.992854c11.620229-4.044045 32.76188 1.996427 32.76188 1.996427L389.064296 765.836231s-152.803456-5.630948-224.777211-190.837951c0-10.238088 1.894046-53.494007 0-63.629714a356.387827 356.387827 0 0 1 0-63.578524c1.894046-10.238088 31.789262-31.738071 31.789261-31.738071l34.860688 5.938091s1.945237-26.260695 11.569039-36.396401-5.83571-22.011888-5.83571-22.011888-7.729756-36.396401-5.784519-50.473772 7.678566-48.528535 13.514275-56.616624 44.279729-26.363075 44.279729-26.363075 21.192841-14.07737 21.192841-24.264268 7.678566-24.264267 13.514276-34.348783 34.707117-32.403547 32.76188-50.524962 6.398805-14.230942 12.183324-30.35593 17.302368-20.885699 34.041641-24.264267c0 0 17.302368 50.678533 11.569039 60.660668s-15.357131 32.352357-15.357131 32.352357l1.894046 34.399974a68.236853 68.236853 0 0 0 15.408322 22.011888zM670.970036 500.10667c-31.840452-63.578524-95.418976 0-95.418976 0S670.970036 341.10917 734.59975 404.534123s63.578524 95.470166 63.578524 127.208237-31.840452 31.891643-31.840452 31.891643a112.926105 112.926105 0 0 1-95.367786-63.527333z"  horiz-adv-x="1024" />
      
      <glyph glyph-name="xitongguanli" unicode="&#58946;" d="M921.727981 673.702723L558.019962 883.721209a92.449063 92.449063 0 0 1-92.090932 0L102.272173 673.753885A92.397902 92.397902 0 0 1 56.226707 594.14639v-419.934649a92.090932 92.090932 0 0 1 46.045466-79.914464l363.656857-209.762678a92.090932 92.090932 0 0 1 92.090932 0l363.708019 209.762678a92.090932 92.090932 0 0 1 46.045466 79.760979V594.14639a92.090932 92.090932 0 0 1-46.045466 79.556333z m-35.81314-499.644467a10.232326 10.232326 0 0 0-5.116163-8.902123l-363.656858-209.762678a10.539296 10.539296 0 0 0-10.232325 0l-363.708019 209.762678a10.232326 10.232326 0 0 0-5.116163 8.902123V594.14639a10.232326 10.232326 0 0 0 5.116163 8.850962l363.656857 209.762678a10.232326 10.232326 0 0 0 5.116163 1.381364 10.232326 10.232326 0 0 0 5.116163-1.381364l363.708019-209.762678a10.232326 10.232326 0 0 0 5.116163-8.850962zM511.974496 578.43977a194.414189 194.414189 0 1 1 194.414189-194.414189 194.414189 194.414189 0 0 1-194.414189 194.414189z m0-306.969772a112.555583 112.555583 0 1 0 112.555583 112.555583 112.555583 112.555583 0 0 0-112.555583-112.555583z"  horiz-adv-x="1024" />
      
      <glyph glyph-name="shenpiguanli" unicode="&#58947;" d="M404.48-46.08H122.88a10.24 10.24 0 0 0-10.24 10.24V803.84a10.24 10.24 0 0 0 10.24 10.24h643.4304a10.24 10.24 0 0 0 10.24-10.24v-340.48a40.96 40.96 0 0 1 81.92 0V803.84a92.16 92.16 0 0 1-92.16 92.16H122.88A92.16 92.16 0 0 1 30.72 803.84v-839.68a92.16 92.16 0 0 1 92.16-92.16h281.6a40.96 40.96 0 1 1 0 81.92zM670.72 670.72a40.96 40.96 0 0 1-40.96 40.96H245.76a40.96 40.96 0 0 1 0-81.92h384a40.96 40.96 0 0 1 40.96 40.96zM563.2 396.8a40.96 40.96 0 0 1-40.96 40.96H245.76a40.96 40.96 0 0 1 0-81.92h276.48a40.96 40.96 0 0 1 40.96 40.96zM245.76 163.84a40.96 40.96 0 0 1 0-81.92h122.88a40.96 40.96 0 0 1 0 81.92zM928.4096 72.192h-106.24v98.7136c33.9968 20.992 54.2208 53.4016 54.2208 89.1904 0 63.488-62.72 113.2032-142.7456 113.2032s-142.7456-49.7152-142.7456-113.2032c0-35.84 20.48-68.5056 54.6304-89.4976v-98.4064H538.8288a64.6656 64.6656 0 0 1-64.6144-64.6144v-50.5856A64.6656 64.6656 0 0 1 538.8288-107.52h389.5808A64.6656 64.6656 0 0 1 993.28-43.008v50.5856a64.6656 64.6656 0 0 1-64.8704 64.6144zM911.36-25.6h-355.2256v15.872h130.3552a40.96 40.96 0 0 1 40.96 40.96v163.84a40.96 40.96 0 0 1-26.624 39.5264c-16.1792 5.9904-27.9552 16.7936-27.9552 25.6 0 12.4928 24.2688 31.2832 60.8256 31.2832s60.8256-18.7904 60.8256-31.2832c0-8.9088-11.3664-19.4048-27.648-25.6a40.96 40.96 0 0 1-26.5216-39.6288v-163.84a40.96 40.96 0 0 1 40.96-40.96H911.36z"  horiz-adv-x="1024" />
      
      <glyph glyph-name="a-celveguanli_huaban1" unicode="&#58948;" d="M922.4192 888.32H100.7104a91.0336 91.0336 0 0 1-89.6512-92.16v-604.16a91.0848 91.0848 0 0 1 89.6512-92.16h821.7088a91.0336 91.0336 0 0 1 89.6 92.16v604.16a90.9824 90.9824 0 0 1-89.6 92.16z m9.9328-696.32a10.24 10.24 0 0 0-9.9328-10.24H100.7104a10.24 10.24 0 0 0-9.9328 10.24v604.16a10.24 10.24 0 0 0 9.9328 10.24h821.7088a10.24 10.24 0 0 0 9.9328-10.24zM842.0352-20.48H176.0768a40.96 40.96 0 0 1 0-81.92h665.9584a40.96 40.96 0 0 1 0 81.92zM785.92 694.6304a39.1168 39.1168 0 0 1-56.32-5.5296L527.36 436.48l-99.072 129.024a39.2192 39.2192 0 0 1-33.1776 15.36A39.6288 39.6288 0 0 1 363.52 562.3296l-134.4512-215.04a41.6768 41.6768 0 0 1 11.9296-56.6272 38.9632 38.9632 0 0 1 21.504-6.5024 39.68 39.68 0 0 1 33.5872 18.7904l104.2432 166.7072 94.8736-123.8016a39.5264 39.5264 0 0 1 30.72-15.36 38.912 38.912 0 0 1 31.1808 14.8992l234.0864 291.84a41.7792 41.7792 0 0 1-5.2736 57.3952z"  horiz-adv-x="1024" />
      
      <glyph glyph-name="tiaoduzhongxin" unicode="&#58949;" d="M693.227383 577.529128l-134.769396 134.700671A54.979866 54.979866 0 0 1 481.073826 634.502013l48.107382-48.107382H206.174497a54.979866 54.979866 0 0 1-54.979866-54.979866 56.491812 56.491812 0 0 1 0.893423-9.690201 54.979866 54.979866 0 0 1 15.944161-35.324564L295.516779 359.602685a54.979866 54.979866 0 1 1 77.384161 77.727785L333.521611 476.778523H652.885906a54.979866 54.979866 0 0 1 54.292617 46.526712 54.979866 54.979866 0 0 1-13.95114 54.223893zM948.402685 146.899329a137.449664 137.449664 0 1 1 137.449664-137.449665 137.449664 137.449664 0 0 1-137.449664 137.449665z m0-164.939597a27.489933 27.489933 0 1 0 27.489932 27.489932 27.489933 27.489933 0 0 0-27.489932-27.489932zM316.134228 146.899329a137.449664 137.449664 0 1 1 137.449665-137.449665 137.449664 137.449664 0 0 1-137.449665 137.449665z m0-164.939597a27.489933 27.489933 0 1 0 27.489933 27.489932 27.489933 27.489933 0 0 0-27.489933-27.489932zM1293.126443 580.621745C1203.577987 710.442953 1167.22255 710.442953 1147.704698 710.442953h-116.832215a123.704698 123.704698 0 0 1-123.704698-123.704698v-409.531275l51.612349-3.161342a165.764295 165.764295 0 0 0 152.569128-138.755437l7.284832-46.457986H1250.791946a123.704698 123.704698 0 0 1 123.704698 123.704698V414.926174c0 39.448054-44.258792 111.884027-81.370201 165.695571zM1264.536913 112.536913a13.744966 13.744966 0 0 0-13.744967-13.744967h-42.403221A277.785772 277.785772 0 0 1 1017.127517 275.552215V586.738255a13.744966 13.744966 0 0 0 13.744966 13.744966h105.148994c35.255839-29.001879 117.794362-153.46255 128.515436-189.543087zM855.692886 145.868456l23.984966 16.35651V772.295302a123.704698 123.704698 0 0 1-123.704698 123.704698H123.704698A123.704698 123.704698 0 0 1 0 772.295302v-646.013423c0-58.072483 41.234899-120.268456 102.331275-120.268456h43.365369l10.102551 42.128322A164.321074 164.321074 0 0 0 316.134228 174.389262a165.97047 165.97047 0 0 0 160.953557-128.790336l9.552752-43.021745h291.255839l9.552752 43.021745a164.939597 164.939597 0 0 0 68.243758 100.26953zM769.718121 218.373154a274.280805 274.280805 0 0 1-76.215839-105.836241H570.897181A277.029799 277.029799 0 0 1 316.134228 284.348993a274.074631 274.074631 0 0 1-206.174496-92.709798V772.295302a13.744966 13.744966 0 0 0 13.744966 13.744966h632.268456a13.744966 13.744966 0 0 0 13.744967-13.744966z"  horiz-adv-x="1374" />
      
      <glyph glyph-name="a-shouyexiawu24715" unicode="&#58950;" d="M972.656199 591.498341l-409.065287 288.679708-1.279609 0.870134a92.131821 92.131821 0 0 1-100.628422 0L51.337985 591.498341a92.131821 92.131821 0 0 1-40.947477-76.776517v-550.590003a92.131821 92.131821 0 0 1 92.131822-92.131821h818.949524a92.131821 92.131821 0 0 1 92.131822 92.131821V514.773008a92.131821 92.131821 0 0 1-40.947477 76.725333z m-40.947476-627.36652a10.236869 10.236869 0 0 0-10.236869-10.236869H102.52233a10.236869 10.236869 0 0 0-10.236869 10.236869V514.773008a10.236869 10.236869 0 0 0 4.657775 8.59897L506.878658 812.665897a10.236869 10.236869 0 0 0 10.236869 0l408.655812-288.47497 1.228425-0.818949a10.236869 10.236869 0 0 0 4.657775-8.59897zM511.997092 419.672494a40.947476 40.947476 0 0 1-40.947476-40.947476v-261.040161a40.947476 40.947476 0 0 1 81.894952 0v261.040161a40.947476 40.947476 0 0 1-40.947476 40.947476z"  horiz-adv-x="1024" />
      
      <glyph glyph-name="xiaoxiguanli" unicode="&#58951;" d="M1010.508052 896H99.940357A99.940357 99.940357 0 0 1 0 796.059643v-588.537656a99.940357 99.940357 0 0 1 99.940357-99.940357h241.689096l90.779157-194.328472a70.680041 70.680041 0 0 1 64.517053-41.142113 70.624519 70.624519 0 0 1 64.517052 40.920024L653.110232 107.58163H1010.508052a99.940357 99.940357 0 0 1 99.940357 99.940357V796.059643a99.940357 99.940357 0 0 1-99.940357 99.940357z m11.104484-688.478013a11.104484 11.104484 0 0 0-11.104484-11.104484h-364.449168a78.009001 78.009001 0 0 1-70.291384-44.417937l-78.67527-167.400097-77.731388 166.955918A77.731389 77.731389 0 0 1 348.6808 196.417503H99.940357a11.104484 11.104484 0 0 0-11.104484 11.104484V796.059643a11.104484 11.104484 0 0 0 11.104484 11.104484h910.567695a11.104484 11.104484 0 0 0 11.104484-11.104484zM249.850892 507.343057m-83.283631 0a83.283631 83.283631 0 1 1 166.567262 0 83.283631 83.283631 0 1 1-166.567262 0ZM552.448083 507.343057m-83.28363 0a83.283631 83.283631 0 1 1 166.567261 0 83.283631 83.283631 0 1 1-166.567261 0ZM855.045275 507.343057m-83.283631 0a83.283631 83.283631 0 1 1 166.567261 0 83.283631 83.283631 0 1 1-166.567261 0Z"  horiz-adv-x="1110" />
      
      <glyph glyph-name="shouye" unicode="&#58952;" d="M972.656199 591.498341l-409.065287 288.679708-1.279609 0.870134a92.131821 92.131821 0 0 1-100.628422 0L51.337985 591.498341a92.131821 92.131821 0 0 1-40.947477-76.776517v-550.590003a92.131821 92.131821 0 0 1 92.131822-92.131821h818.949524a92.131821 92.131821 0 0 1 92.131822 92.131821V514.773008a92.131821 92.131821 0 0 1-40.947477 76.725333z m-40.947476-627.36652a10.236869 10.236869 0 0 0-10.236869-10.236869H102.52233a10.236869 10.236869 0 0 0-10.236869 10.236869V514.773008a10.236869 10.236869 0 0 0 4.657775 8.59897L506.878658 812.665897a10.236869 10.236869 0 0 0 10.236869 0l408.604628-288.47497 1.228424-0.818949a10.236869 10.236869 0 0 0 4.657776-8.59897zM511.997092 419.672494a40.947476 40.947476 0 0 1-40.947476-40.947476v-261.040161a40.947476 40.947476 0 0 1 81.894952 0v261.040161a40.947476 40.947476 0 0 1-40.947476 40.947476z"  horiz-adv-x="1024" />
      
      <glyph glyph-name="celveguanli" unicode="&#58953;" d="M191.6416 246.784a40.96 40.96 0 0 1 57.3952 7.7312l133.12 174.5408 110.4384-130.0992a40.96 40.96 0 0 1 64.4096 2.5088L747.52 565.3504l17.1008-65.9456a40.96 40.96 0 0 1 39.6288-30.72 42.4448 42.4448 0 0 1 10.24 1.3312 40.96 40.96 0 0 1 29.3376 49.9712l-40.96 158.72c0 0.8192-0.512 1.6384-0.768 2.4576s-0.3072 1.6384-0.512 2.4576a40.96 40.96 0 0 1-49.9712 29.3888l-158.72-41.216a40.96 40.96 0 0 1 10.24-80.64 42.8032 42.8032 0 0 1 10.24 1.3312L678.0416 609.28l-156.9792-217.4976-109.5168 129.1264a41.4208 41.4208 0 0 1-32.3072 14.4384 40.96 40.96 0 0 1-31.5392-16.128l-163.84-215.04a40.96 40.96 0 0 1 7.7824-57.3952zM983.04 896H40.96a40.96 40.96 0 0 1-40.96-40.96v-742.4a40.96 40.96 0 0 1 40.96-40.96h942.08a40.96 40.96 0 0 1 40.96 40.96V855.04a40.96 40.96 0 0 1-40.96 40.96z m-40.96-742.4H81.92V814.08h860.16zM830.9248-46.08H193.0752a40.96 40.96 0 0 1 0-81.92h637.8496a40.96 40.96 0 0 1 0 81.92z"  horiz-adv-x="1024" />
      
      <glyph glyph-name="a-quanxianguanli_huaban1" unicode="&#58954;" d="M890.353812 793.309451L531.301676 892.992113l-1.945527 0.511981a101.986576 101.986576 0 0 1-44.849518 0L132.26384 793.565441C90.332613 783.325825 61.456895 748.050348 61.456895 707.347874v-351.116433c0-113.86453 56.317888-220.151744 154.464608-291.829056l237.507893-173.459095a99.887454 99.887454 0 0 1 116.782821 0l237.456695 173.459095c96.764371 70.65335 154.515806 181.59959 154.515806 296.948864V711.955702c-0.25599 39.934502-27.646963 71.011737-71.830906 81.353749z m-10.239616-432.316588c0-89.084659-45.207905-175.302226-120.878667-230.391361l-237.507894-173.459095a18.380111 18.380111 0 0 0-20.120845 0l-237.61029 173.254303c-76.79712 56.317888-120.878667 138.234816-120.878667 225.834731V707.347874c0 1.535942 2.611102 5.119808 8.601278 6.450959l351.833206 99.938652a20.786421 20.786421 0 0 0 7.116533 0l358.642551-99.631464 1.996725-0.460783a28.414934 28.414934 0 0 0 8.703674-3.276677zM685.61269 578.226317c0 92.156544-78.077072 167.21293-174.073473 167.212929s-174.073472-75.005187-174.073472-167.212929c0-78.640251 56.829869-144.736972 133.115008-162.502707v-306.11332a40.958464 40.958464 0 0 1 81.916928 0v155.744559h65.277552a40.958464 40.958464 0 0 1 0 81.916928h-65.277552V415.72361c76.285139 17.765734 133.115008 83.862455 133.115009 162.502707z m-266.230017 0c0 46.999838 41.368049 85.296001 92.156544 85.296001s92.156544-38.296164 92.156544-85.296001-41.316851-85.296001-92.156544-85.296002-92.156544 38.244966-92.156544 85.296002z"  horiz-adv-x="1024" />
      
      <glyph glyph-name="baobiaochaxun" unicode="&#58955;" d="M625.7664 453.1712a40.96 40.96 0 0 1 32.4608 18.7392l138.24 215.04a40.96 40.96 0 0 1-68.9152 44.3392l-107.1616-166.7072-97.28 123.8016a40.96 40.96 0 0 1-31.744 15.36 40.3968 40.3968 0 0 1-32.0512-14.8992l-240.64-291.84a40.96 40.96 0 0 1 63.232-52.1216l208.0256 252.8768 101.6832-129.024a40.96 40.96 0 0 1 34.1504-15.5648zM878.08 896H145.92A92.16 92.16 0 0 1 53.76 803.84v-839.68a92.16 92.16 0 0 1 92.16-92.16h510.3104a40.96 40.96 0 1 1 0 81.92H145.92a10.24 10.24 0 0 0-10.24 10.24V803.84a10.24 10.24 0 0 0 10.24 10.24h732.16a10.24 10.24 0 0 0 10.24-10.24v-505.9584a40.96 40.96 0 0 1 81.92 0V803.84a92.16 92.16 0 0 1-92.16 92.16zM822.6304 112.64a168.96 168.96 0 1 1-56.0128-59.8528l118.784-118.784a40.96 40.96 0 0 1 57.9072 57.9584z m-147.6608-5.12a87.04 87.04 0 1 0 87.04 87.04 87.04 87.04 0 0 0-87.04-87.04z"  horiz-adv-x="1024" />
      
      <glyph glyph-name="zuzhijigouguanli" unicode="&#58956;" d="M931.84 184.32h-15.36v116.0192C916.48 357.7856 862.6688 404.48 796.5696 404.48H552.96V578.56h143.36a92.16 92.16 0 0 1 92.16 92.16V803.84a92.16 92.16 0 0 1-92.16 92.16H327.68a92.16 92.16 0 0 1-92.16-92.16v-133.12a92.16 92.16 0 0 1 92.16-92.16h143.36v-174.08H237.6704C171.5712 404.48 117.76 357.7856 117.76 300.3392V184.32h-25.6a92.16 92.16 0 0 1-92.16-92.16v-128a92.16 92.16 0 0 1 92.16-92.16h128a92.16 92.16 0 0 1 92.16 92.16v128a92.16 92.16 0 0 1-92.16 92.16h-20.48v116.0192c0 10.24 16.5888 22.2208 37.9904 22.2208H471.04v-138.24h-23.04a92.16 92.16 0 0 1-92.16-92.16v-128a92.16 92.16 0 0 1 92.16-92.16h128a92.16 92.16 0 0 1 92.16 92.16v128a92.16 92.16 0 0 1-92.16 92.16H552.96v138.24h243.6096c21.4016 0 37.9904-11.9296 37.9904-22.2208V184.32h-30.72a92.16 92.16 0 0 1-92.16-92.16v-128a92.16 92.16 0 0 1 92.16-92.16h128a92.16 92.16 0 0 1 92.16 92.16v128a92.16 92.16 0 0 1-92.16 92.16zM317.44 670.72V803.84a10.24 10.24 0 0 0 10.24 10.24h368.64a10.24 10.24 0 0 0 10.24-10.24v-133.12a10.24 10.24 0 0 0-10.24-10.24H327.68a10.24 10.24 0 0 0-10.24 10.24zM230.4 92.16v-128a10.24 10.24 0 0 0-10.24-10.24H92.16a10.24 10.24 0 0 0-10.24 10.24v128a10.24 10.24 0 0 0 10.24 10.24h128a10.24 10.24 0 0 0 10.24-10.24z m355.84 0v-128a10.24 10.24 0 0 0-10.24-10.24h-128a10.24 10.24 0 0 0-10.24 10.24v128a10.24 10.24 0 0 0 10.24 10.24h128a10.24 10.24 0 0 0 10.24-10.24z m355.84-128a10.24 10.24 0 0 0-10.24-10.24h-128a10.24 10.24 0 0 0-10.24 10.24v128a10.24 10.24 0 0 0 10.24 10.24h128a10.24 10.24 0 0 0 10.24-10.24z"  horiz-adv-x="1024" />
      
      <glyph glyph-name="yonghuguanli" unicode="&#58957;" d="M1009.367504 159.984072l-80.329716 139.149825a92.052962 92.052962 0 0 1-79.463216 45.873569h-160.710403a92.052962 92.052962 0 0 1-79.463216-45.873569l-80.329716-139.149825a91.747138 91.747138 0 0 1 0-91.747138l80.329716-139.200797a92.052962 92.052962 0 0 1 79.463216-45.873569h160.710403a92.052962 92.052962 0 0 1 79.463216 45.873569l80.329716 139.200797a91.747138 91.747138 0 0 1 0 91.747138z m-70.594326-50.970632L858.647345-30.187357a10.194126 10.194126 0 0 0-8.81792-5.097063h-160.965256a10.194126 10.194126 0 0 0-8.81792 5.097063l-80.380686 139.200797a10.194126 10.194126 0 0 0 0 10.194126L680.250132 258.357392a10.194126 10.194126 0 0 0 8.817919 5.097063h160.710404a10.194126 10.194126 0 0 0 8.817919-5.097063l80.380687-139.149826a10.194126 10.194126 0 0 0-0.203883-10.194126zM769.244856 225.226481a111.166949 111.166949 0 1 1 111.115978-111.115978 111.26889 111.26889 0 0 1-111.115978 111.115978z m0-140.729916a29.613937 29.613937 0 1 0 29.562966 29.613938 29.664908 29.664908 0 0 0-29.562966-29.613938zM512.047046 419.424589a238.287705 238.287705 0 1 1-238.287705 238.287706A238.542558 238.542558 0 0 1 512.047046 419.424589z m0 395.0224a156.734694 156.734694 0 1 0-156.734694-156.734694A156.887606 156.887606 0 0 0 512.047046 814.446989zM556.646349-46.446989H94.087862a10.194126 10.194126 0 0 0-10.194126 10.194127v115.601394a195.523345 195.523345 0 0 0 195.319462 195.319462H542.629425a40.776506 40.776506 0 1 1 0 81.553011H279.213198A277.178298 277.178298 0 0 1 2.340724 79.348532v-115.601394a91.747138 91.747138 0 0 1 91.747138-91.747138h462.558487a40.776506 40.776506 0 0 1 0 81.553011z"  horiz-adv-x="1024" />
      
      <glyph glyph-name="cangchuguanli" unicode="&#58958;" d="M972.656199 591.498341l-409.065287 288.679708-1.279609 0.870134a92.131821 92.131821 0 0 1-100.628422 0L51.337985 591.498341a92.131821 92.131821 0 0 1-40.947477-76.776517v-550.590003a92.131821 92.131821 0 0 1 92.131822-92.131821h818.949524a92.131821 92.131821 0 0 1 92.131822 92.131821V514.773008a92.131821 92.131821 0 0 1-40.947477 76.725333z m-40.947476-627.36652a10.236869 10.236869 0 0 0-10.236869-10.236869H102.52233a10.236869 10.236869 0 0 0-10.236869 10.236869V514.773008a10.236869 10.236869 0 0 0 4.657775 8.59897L506.878658 812.665897a10.236869 10.236869 0 0 0 10.236869 0l408.604628-288.47497 1.228424-0.818949a10.236869 10.236869 0 0 0 4.657776-8.59897zM568.299872 383.843453a40.947476 40.947476 0 0 1-40.947476 40.947476H220.246324a40.947476 40.947476 0 0 1 0-81.894953h307.106072a40.947476 40.947476 0 0 1 40.947476 40.947477zM428.003581 266.119459H230.483193a40.947476 40.947476 0 0 1 0-81.894953h197.520388a40.947476 40.947476 0 0 1 0 81.894953zM428.003581 107.447988H230.483193a40.947476 40.947476 0 0 1 0-81.894952h197.520388a40.947476 40.947476 0 0 1 0 81.894952zM786.293998 266.119459H588.77361a40.947476 40.947476 0 0 1 0-81.894953h197.520388a40.947476 40.947476 0 0 1 0 81.894953zM786.293998 107.447988H588.77361a40.947476 40.947476 0 0 1 0-81.894952h197.520388a40.947476 40.947476 0 0 1 0 81.894952z"  horiz-adv-x="1024" />
      
      <glyph glyph-name="zhushujuguanli" unicode="&#58959;" d="M261.12-5.12a40.96 40.96 0 0 1 40.96 40.96V455.68a40.96 40.96 0 0 1-81.92 0v-419.84a40.96 40.96 0 0 1 40.96-40.96zM560.64-5.12a40.96 40.96 0 0 1 40.96 40.96V568.32a40.96 40.96 0 0 1-81.92 0v-532.48a40.96 40.96 0 0 1 40.96-40.96zM860.16-5.12a40.96 40.96 0 0 1 40.96 40.96V732.16a40.96 40.96 0 0 1-81.92 0v-696.32a40.96 40.96 0 0 1 40.96-40.96zM983.04-46.08H81.92V855.04A40.96 40.96 0 0 1 0 855.04v-942.08a40.96 40.96 0 0 1 40.96-40.96h942.08a40.96 40.96 0 0 1 0 81.92z"  horiz-adv-x="1024" />
      
      <glyph glyph-name="yundanguanli" unicode="&#58960;" d="M236.48937 490.384276a41.07501 41.07501 0 0 1 41.07501-41.07501h308.062575a41.07501 41.07501 0 0 1 0 82.15002h-308.062575a41.07501 41.07501 0 0 1-41.07501-41.07501zM585.626955 331.218612h-308.062575a41.07501 41.07501 0 0 1 0-82.15002h308.062575a41.07501 41.07501 0 0 1 0 82.15002zM934.097072 124.097874l-144.840754 144.840754a41.07501 41.07501 0 0 1-58.069796-58.069795L811.026073 130.977938H277.56438a41.07501 41.07501 0 0 1 0-82.15002h532.383474l-78.761332-78.761332a41.07501 41.07501 0 0 1 58.069796-58.121139l144.840754 144.892098a41.07501 41.07501 0 0 1 11.757721 33.630165 41.07501 41.07501 0 0 1-11.757721 33.630164zM585.626955-45.84998H144.892098a10.268753 10.268753 0 0 0-10.268753 10.268753v744.484556a10.268753 10.268753 0 0 0 10.268753 10.268753h91.340553a41.07501 41.07501 0 1 1 0 82.15002H144.892098a92.418773 92.418773 0 0 1-92.418773-92.418773v-744.484556a92.418773 92.418773 0 0 1 92.418773-92.418773h440.734857a41.07501 41.07501 0 0 1 0 82.15002zM879.107902 801.322102h-80.455676a41.07501 41.07501 0 0 1 0-82.15002H879.107902a10.268753 10.268753 0 0 0 10.268753-10.268753V372.293622a41.07501 41.07501 0 0 1 82.15002 0V708.903329a92.418773 92.418773 0 0 1-92.418773 92.418773zM383.640594 623.878059h266.987565a92.418773 92.418773 0 0 1 92.418772 92.418772V803.581227a92.418773 92.418773 0 0 1-92.418772 92.418773h-266.987565a92.418773 92.418773 0 0 1-92.418773-92.418773v-87.284396a92.418773 92.418773 0 0 1 92.418773-92.418772z m-10.268753 179.703168a10.268753 10.268753 0 0 0 10.268753 10.268753h266.987565a10.268753 10.268753 0 0 0 10.268752-10.268753v-87.284396a10.268753 10.268753 0 0 0-10.268752-10.268752h-266.987565a10.268753 10.268753 0 0 0-10.268753 10.268752z"  horiz-adv-x="1024" />
      
      <glyph glyph-name="kaifazhemoshi" unicode="&#58961;" d="M983.04 896H40.96a40.96 40.96 0 0 1-40.96-40.96v-742.4a40.96 40.96 0 0 1 40.96-40.96h942.08a40.96 40.96 0 0 1 40.96 40.96V855.04a40.96 40.96 0 0 1-40.96 40.96z m-40.96-742.4H81.92V814.08h860.16zM830.9248-46.08H193.0752a40.96 40.96 0 0 1 0-81.92h637.8496a40.96 40.96 0 0 1 0 81.92zM265.4208 347.4432a40.96 40.96 0 0 1 57.9584 57.9584l-87.04 87.04 90.624 90.3168a40.96 40.96 0 0 1-57.9072 57.9584L153.1904 524.8512c-0.6144-0.6144-1.1264-1.28-1.6896-1.8944a20.48 20.48 0 0 1-1.8944-1.7408 40.96 40.96 0 0 1 0-57.9072zM675.0208 347.4432a40.96 40.96 0 0 1 57.9584 0l115.8144 115.8656c0.6144 0.6144 1.1776 1.28 1.7408 1.8944l1.8944 1.7408a40.96 40.96 0 0 1 0 57.9072l-115.8656 115.8656a40.96 40.96 0 1 1-57.9072-57.9584l87.04-87.04-90.6752-90.3168a40.96 40.96 0 0 1 0-57.9584zM372.6848 336.896a40.96 40.96 0 0 1 57.6512 5.8368l204.8 250.88a40.96 40.96 0 1 1-63.4368 51.8144l-204.8-250.88a40.96 40.96 0 0 1 5.7856-57.6512z"  horiz-adv-x="1024" />
      
      <glyph glyph-name="jiesuanguanli" unicode="&#58962;" d="M672.911352 342.616927a41.07501 41.07501 0 0 1 0 82.15002h-31.781789l32.192539 36.813478a41.07501 41.07501 0 1 1-61.612515 54.064982L541.368632 435.44645a42.153229 42.153229 0 0 1-6.777376-10.679503h-35.119134a42.153229 42.153229 0 0 1-6.777377 10.679503L422.610509 515.645407A41.07501 41.07501 0 0 1 360.535901 461.580425l32.192539-36.813478H357.968712a41.07501 41.07501 0 0 1 0-82.15002h116.39631V243.934216H367.21059a41.07501 41.07501 0 1 1 0-82.15002h107.154432v-97.553149a41.07501 41.07501 0 0 1 82.15002 0v97.553149H663.464099a41.07501 41.07501 0 0 1 0 82.15002H556.515042v98.682711zM879.107902 801.322102h-80.455676a41.07501 41.07501 0 0 1 0-82.15002H879.107902a10.268753 10.268753 0 0 0 10.268753-10.268753v-744.484556a10.268753 10.268753 0 0 0-10.268753-10.268753H144.892098a10.268753 10.268753 0 0 0-10.268753 10.268753v744.484556a10.268753 10.268753 0 0 0 10.268753 10.268753h91.340553a41.07501 41.07501 0 1 1 0 82.15002H144.892098a92.418773 92.418773 0 0 1-92.418773-92.418773v-744.484556a92.418773 92.418773 0 0 1 92.418773-92.418773h734.215804a92.418773 92.418773 0 0 1 92.418773 92.418773v744.484556a92.418773 92.418773 0 0 1-92.418773 92.418773zM383.640594 623.878059h266.987565a92.418773 92.418773 0 0 1 92.418772 92.418772V803.581227a92.418773 92.418773 0 0 1-92.418772 92.418773h-266.987565a92.418773 92.418773 0 0 1-92.418773-92.418773v-87.284396a92.418773 92.418773 0 0 1 92.418773-92.418772z m-10.268753 179.703168a10.268753 10.268753 0 0 0 10.268753 10.268753h266.987565a10.268753 10.268753 0 0 0 10.268752-10.268753v-87.284396a10.268753 10.268753 0 0 0-10.268752-10.268752h-266.987565a10.268753 10.268753 0 0 0-10.268753 10.268752z"  horiz-adv-x="1024" />
      
      <glyph glyph-name="yichangguanli" unicode="&#58963;" d="M512 896a512 512 0 1 1 512-512A512.5632 512.5632 0 0 1 512 896z m0-942.08a430.08 430.08 0 1 0 430.08 430.08 430.5408 430.5408 0 0 0-430.08-430.08zM512 215.04a40.96 40.96 0 0 1 40.96 40.96V655.36a40.96 40.96 0 0 1-81.92 0v-399.36a40.96 40.96 0 0 1 40.96-40.96zM512 112.64m-40.96 0a40.96 40.96 0 1 1 81.92 0 40.96 40.96 0 1 1-81.92 0Z"  horiz-adv-x="1024" />
      
      <glyph glyph-name="yunshujiankong" unicode="&#58964;" d="M51.995532 606.02092L726.22159 157.663451a41.596425 41.596425 0 0 1 23.034021-6.967401 29.377475 29.377475 0 0 1 3.015741 0h1.767848a41.596425 41.596425 0 0 1 29.429471 12.218949l210.217934 210.321926a41.596425 41.596425 0 0 1 0 58.806946 35.980908 35.980908 0 0 1-5.563522 4.627603 41.856403 41.856403 0 0 1-3.431705 2.547781L310.621306 887.576724a41.596425 41.596425 0 0 1-54.439322-3.743678L44.664162 672.419214a41.596425 41.596425 0 0 1-8.579263-46.328019A41.596425 41.596425 0 0 1 51.995532 606.02092zM290.811008 800.848177l608.347721-404.577232-152.346908-152.450898L138.36011 648.501269zM1020.724282 178.045699a41.596425 41.596425 0 0 1-58.806947-1.97583l-153.854778-164.565858L91.824109 487.887072A41.596425 41.596425 0 1 1 45.756068 418.629024l229.404285-152.55489a45.704072 45.704072 0 0 1-4.679597-5.719508l-68.322129-101.079314H83.192851v102.691175a41.596425 41.596425 0 0 1-83.192851 0v-348.370062a41.596425 41.596425 0 0 1 83.192851 0v162.486037h127.077079a41.596425 41.596425 0 0 1 20.798213 5.719508 41.596425 41.596425 0 0 1 31.197319 18.094445l76.953386 113.870214a43.780238 43.780238 0 0 1 3.795674 7.019397l443.105921-294.762669a44.872144 44.872144 0 0 1 59.274906 3.84767l177.096781 189.419721a41.596425 41.596425 0 0 1-1.767848 58.754951z"  horiz-adv-x="1033" />
      
      <glyph glyph-name="xuqiuguanli" unicode="&#58965;" d="M277.56438 490.384276m-41.07501 0a41.07501 41.07501 0 1 1 82.15002 0 41.07501 41.07501 0 1 1-82.15002 0ZM765.330124 531.459286h-349.137585a41.07501 41.07501 0 0 1 0-82.15002h349.137585a41.07501 41.07501 0 0 1 0 82.15002zM277.56438 290.143602m-41.07501 0a41.07501 41.07501 0 1 1 82.15002 0 41.07501 41.07501 0 1 1-82.15002 0ZM765.330124 331.218612h-349.137585a41.07501 41.07501 0 0 1 0-82.15002h349.137585a41.07501 41.07501 0 1 1 0 82.15002zM277.56438 89.902928m-41.07501 0a41.07501 41.07501 0 1 1 82.15002 0 41.07501 41.07501 0 1 1-82.15002 0ZM765.330124 130.977938h-349.137585a41.07501 41.07501 0 0 1 0-82.15002h349.137585a41.07501 41.07501 0 1 1 0 82.15002zM879.107902 801.322102h-80.455676a41.07501 41.07501 0 0 1 0-82.15002H879.107902a10.268753 10.268753 0 0 0 10.268753-10.268753v-744.484556a10.268753 10.268753 0 0 0-10.268753-10.268753H144.892098a10.268753 10.268753 0 0 0-10.268753 10.268753v744.484556a10.268753 10.268753 0 0 0 10.268753 10.268753h91.340553a41.07501 41.07501 0 1 1 0 82.15002H144.892098a92.418773 92.418773 0 0 1-92.418773-92.418773v-744.484556a92.418773 92.418773 0 0 1 92.418773-92.418773h734.215804a92.418773 92.418773 0 0 1 92.418773 92.418773v744.484556a92.418773 92.418773 0 0 1-92.418773 92.418773zM383.640594 623.878059h266.987565a92.418773 92.418773 0 0 1 92.418772 92.418772V803.581227a92.418773 92.418773 0 0 1-92.418772 92.418773h-266.987565a92.418773 92.418773 0 0 1-92.418773-92.418773v-87.284396a92.418773 92.418773 0 0 1 92.418773-92.418772z m-10.268753 179.703168a10.268753 10.268753 0 0 0 10.268753 10.268753h266.987565a10.268753 10.268753 0 0 0 10.268752-10.268753v-87.284396a10.268753 10.268753 0 0 0-10.268752-10.268752h-266.987565a10.268753 10.268753 0 0 0-10.268753 10.268752z"  horiz-adv-x="1024" />
      
      <glyph glyph-name="a-ziyuan92" unicode="&#58966;" d="M625.7664 453.1712a40.96 40.96 0 0 1 32.4608 18.7392l138.24 215.04a40.96 40.96 0 0 1-68.9152 44.3392l-107.1616-166.7072-97.28 123.8016a40.96 40.96 0 0 1-31.744 15.36h-0.4608a40.96 40.96 0 0 1-31.5904-14.8992l-240.64-291.84a40.96 40.96 0 0 1 63.232-52.1216l208.0256 252.8768 101.6832-129.024a40.96 40.96 0 0 1 34.1504-15.5648zM878.08 896H145.92A92.16 92.16 0 0 1 53.76 803.84v-839.68a92.16 92.16 0 0 1 92.16-92.16h510.3104a40.96 40.96 0 1 1 0 81.92H145.92a10.24 10.24 0 0 0-10.24 10.24V803.84a10.24 10.24 0 0 0 10.24 10.24h732.16a10.24 10.24 0 0 0 10.24-10.24v-505.9584a40.96 40.96 0 0 1 81.92 0V803.84a92.16 92.16 0 0 1-92.16 92.16zM822.6304 112.64a168.96 168.96 0 1 1-56.0128-59.8528l118.784-118.784a40.96 40.96 0 0 1 57.9072 57.9584z m-147.6608-5.12a87.04 87.04 0 1 0 87.04 87.04 87.04 87.04 0 0 0-87.04-87.04z"  horiz-adv-x="1024" />
      
      <glyph glyph-name="bianji" unicode="&#58967;" d="M952.7296 551.1168a35.84 35.84 0 0 1-35.84-35.84v-544.4096a13.4656 13.4656 0 0 0-13.4656-13.4656H89.7024a13.4656 13.4656 0 0 0-13.4656 13.4656V786.8928a13.4656 13.4656 0 0 0 13.4656 13.4656h636.4672a35.84 35.84 0 0 1 0 71.68H89.7024A85.248 85.248 0 0 1 4.5568 786.8928v-816.0256a85.248 85.248 0 0 1 85.1456-85.1456h813.7216a85.248 85.248 0 0 1 85.1456 85.1456V515.2768a35.84 35.84 0 0 1-35.84 35.84zM1007.9744 859.5968a35.84 35.84 0 0 1-50.688-1.8944L399.872 256a35.84 35.84 0 0 1 52.5824-48.7424L1009.8688 808.96a35.84 35.84 0 0 1-1.8944 50.6368z"  horiz-adv-x="1024" />
      
      <glyph glyph-name="guanbi" unicode="&#58968;" d="M873.9328 42.1888L562.688 353.28l311.1936 311.1936a35.84 35.84 0 1 1-50.688 50.688L512 404.1216 200.7552 715.3664a35.84 35.84 0 0 1-50.688-50.688L461.312 353.28l-311.1936-311.04a35.84 35.84 0 0 1 50.688-50.688L512 302.7456l311.2448-311.2448a35.84 35.84 0 0 1 50.688 50.688z"  horiz-adv-x="1024" />
      
      <glyph glyph-name="chexiao" unicode="&#58969;" d="M724.3776 545.4848H135.168l184.32 184.32a35.84 35.84 0 0 1-50.688 50.7392L25.2416 536.8832c-0.3072 0-0.5632-0.6144-0.8192-0.8704l-0.9216-0.8192a35.84 35.84 0 0 1 0-50.688l240.64-240.64a35.84 35.84 0 1 1 50.688 50.688l-179.2 179.2h588.8a209.5616 209.5616 0 0 0 0-419.072h-387.072a35.84 35.84 0 1 1 0-71.68h387.0208a281.2416 281.2416 0 0 1 0 562.432z"  horiz-adv-x="1024" />
      
      <glyph glyph-name="jia" unicode="&#58970;" d="M512 892.1088A508.1088 508.1088 0 1 1 1020.1088 384 508.672 508.672 0 0 1 512 892.1088z m0-944.5376A436.4288 436.4288 0 1 0 948.4288 384 436.9408 436.9408 0 0 0 512-52.4288zM823.7568 419.84H547.84V695.7568a35.84 35.84 0 0 1-71.68 0V419.84H200.2432a35.84 35.84 0 0 1 0-71.68H476.16v-275.9168a35.84 35.84 0 0 1 71.68 0V348.16h275.9168a35.84 35.84 0 0 1 0 71.68z"  horiz-adv-x="1024" />
      
      <glyph glyph-name="guanbiyulan" unicode="&#58971;" d="M636.16 180.5312a407.2448 407.2448 0 0 0-124.16-20.48c-93.5424 0-191.8464 36.1472-292.1984 107.52a914.8416 914.8416 0 0 0-139.2128 122.88A898.4064 898.4064 0 0 0 248.7808 532.48 35.84 35.84 0 0 1 209.92 592.9984 969.5744 969.5744 0 0 1 11.52 420.5056a46.08 46.08 0 0 1 0-60.4672c38.9632-45.312 246.2208-271.36 500.48-271.36a478.72 478.72 0 0 1 146.1248 23.8592 35.84 35.84 0 1 1-21.9648 68.2496zM1012.48 420.5056c-38.9632 45.3632-246.2208 271.36-500.48 271.36a470.3232 470.3232 0 0 1-125.7984-17.7664 35.84 35.84 0 1 1 19.2512-69.0688 398.592 398.592 0 0 0 106.5472 15.36c93.5424 0 191.8464-36.1472 292.1984-107.52a917.3504 917.3504 0 0 0 139.2128-122.88 909.1584 909.1584 0 0 0-152.6784-132.1472 35.84 35.84 0 0 1 40.2944-59.2896 976.4352 976.4352 0 0 1 181.4528 161.2288 46.08 46.08 0 0 1 0 60.7232zM153.6 811.1104a35.84 35.84 0 0 1-50.688-50.688l274.432-274.6368a165.5808 165.5808 0 0 1 230.8096-230.7584L906.24-43.1104a35.84 35.84 0 0 1 50.688 50.688z m359.2192-514.7648a93.8496 93.8496 0 0 0-83.4048 137.3696L556.0832 307.2a93.6448 93.6448 0 0 0-43.4688-10.8544z"  horiz-adv-x="1024" />
      
      <glyph glyph-name="quanping" unicode="&#58972;" d="M367.683556 273.480806L72.300116-21.902635v196.956381a35.791658 35.791658 0 0 1-71.583316 0v-259.591782A34.973563 34.973563 0 0 1 0.000967-91.542975 35.791658 35.791658 0 0 1 10.942988-117.108445a35.791658 35.791658 0 0 1 25.56547-10.89089 34.973563 34.973563 0 0 1 7.004939 0.664702h259.591782a35.791658 35.791658 0 0 1 0 71.583316h-163.619008l278.612492 278.612492a35.791658 35.791658 0 0 1-50.61963 50.619631zM0.7168 592.895788a35.791658 35.791658 0 0 1 71.583316 0V823.700851h230.805063a35.791658 35.791658 0 0 1 0 71.583316H43.513397A34.973563 34.973563 0 0 1 36.508458 896 35.791658 35.791658 0 0 1 10.942988 885.057979 35.791658 35.791658 0 0 1 0.000967 859.492509 34.973563 34.973563 0 0 1 0.7168 852.48757zM951.752284 592.895788a35.791658 35.791658 0 0 1 71.583316 0V852.48757a34.973563 34.973563 0 0 1 0.715833 7.004939A35.791658 35.791658 0 0 1 1013.109412 885.057979a35.791658 35.791658 0 0 1-25.56547 10.89089 34.973563 34.973563 0 0 1-7.004939-0.715833h-259.591782a35.791658 35.791658 0 0 1 0-71.583316h196.956381L629.627362 535.117826a35.791658 35.791658 0 0 1 50.619631-50.619631L951.752284 756.310272zM1022.926552 175.513925a35.791658 35.791658 0 0 1-71.583316 0v-230.805064h-230.753932a35.791658 35.791658 0 0 1 0-71.583316h259.591783a39.115169 39.115169 0 0 1 6.953807-0.664702 37.018801 37.018801 0 0 1 36.507492 36.45636 34.973563 34.973563 0 0 1-0.715834 7.004939z"  horiz-adv-x="1025" />
      
      <glyph glyph-name="fuzhi" unicode="&#58973;" d="M752.2816 744.6528H190.8224a92.16 92.16 0 0 1-92.16-92.16V-35.84a92.16 92.16 0 0 1 92.16-92.16h561.4592a92.16 92.16 0 0 1 92.16 92.16V652.4928a92.16 92.16 0 0 1-92.16 92.16z m10.24-780.4928a10.24 10.24 0 0 0-10.24-10.24H190.8224a10.24 10.24 0 0 0-10.24 10.24V652.4928a10.24 10.24 0 0 0 10.24 10.24h561.4592a10.24 10.24 0 0 0 10.24-10.24zM906.24 894.72H370.1248a40.96 40.96 0 0 1 0-81.92H906.24a10.24 10.24 0 0 0 10.24-10.24v-673.0752a40.96 40.96 0 1 1 81.92 0V802.56a92.16 92.16 0 0 1-92.16 92.16zM297.472 499.0464h245.76a40.96 40.96 0 0 1 0 81.92h-245.76a40.96 40.96 0 1 1 0-81.92zM645.632 381.2864h-348.16a40.96 40.96 0 1 1 0-81.92h348.16a40.96 40.96 0 0 1 0 81.92zM543.232 181.6064h-245.76a40.96 40.96 0 1 1 0-81.92h245.76a40.96 40.96 0 0 1 0 81.92z"  horiz-adv-x="1024" />
      
      <glyph glyph-name="shanchu" unicode="&#58974;" d="M429.5168 14.4896V461.568a35.84 35.84 0 0 1-71.68 0v-447.0784a35.84 35.84 0 0 1 71.68 0zM673.28 14.4896V461.568a35.84 35.84 0 1 1-71.68 0v-447.0784a35.84 35.84 0 1 1 71.68 0zM988.9792 696.6784H747.9296a35.84 35.84 0 0 1 1.2288 9.1648V807.9872a87.04 87.04 0 0 1-87.04 87.04H362.6496a87.04 87.04 0 0 1-87.04-87.04v-102.4a35.84 35.84 0 0 1 1.28-8.9088H35.84a35.84 35.84 0 0 1 0-71.68h953.1392a35.84 35.84 0 0 1 0 71.68zM347.2896 705.8432V807.9872a15.36 15.36 0 0 0 15.36 15.36h299.52a15.36 15.36 0 0 0 15.36-15.36v-102.4a35.84 35.84 0 0 1 1.2288-9.1648h-332.8a35.84 35.84 0 0 1 1.3312 9.4208zM849.2032 575.488a35.84 35.84 0 0 1-35.84-35.84v-579.6352a15.36 15.36 0 0 0-15.36-15.36H226.816a15.36 15.36 0 0 0-15.36 15.36V539.648a35.84 35.84 0 0 1-71.68 0v-579.6352a87.04 87.04 0 0 1 87.04-87.04h571.1872a87.04 87.04 0 0 1 87.04 87.04V539.648a35.84 35.84 0 0 1-35.84 35.84z"  horiz-adv-x="1024" />
      
      <glyph glyph-name="jiangxu" unicode="&#58975;" d="M934.7072 894.9248H89.2928a87.04 87.04 0 0 1-87.04-87.04v-847.7696a87.04 87.04 0 0 1 87.04-87.04h845.4144a87.04 87.04 0 0 1 87.04 87.04V807.8848a87.04 87.04 0 0 1-87.04 87.04z m15.36-934.8096a15.36 15.36 0 0 0-15.36-15.36H89.2928a15.36 15.36 0 0 0-15.36 15.36V807.8848a15.36 15.36 0 0 0 15.36 15.36h845.4144a15.36 15.36 0 0 0 15.36-15.36zM574.72 192.4096H204.8a35.84 35.84 0 0 1 0-71.68h370.0736a35.84 35.84 0 0 1 0 71.68zM574.72 436.1728H204.8a35.84 35.84 0 0 1 0-71.68h370.0736a35.84 35.84 0 0 1 0 71.68zM574.72 679.936H204.8a35.84 35.84 0 0 1 0-71.68h370.0736a35.84 35.84 0 0 1 0 71.68zM818.0736 290.3552l-59.5968-59.5968V644.096a35.84 35.84 0 1 1-71.68 0V143.36a35.84 35.84 0 0 1 64.8192-21.0432l117.1456 117.1456a35.84 35.84 0 1 1-50.688 50.688z"  horiz-adv-x="1024" />
      
      <glyph glyph-name="shouqi" unicode="&#58976;" d="M0.718643 592.909959a35.789767 35.789767 0 0 1 71.579535 0V823.702829h230.79287a35.789767 35.789767 0 0 1 0 71.579535H43.512979A34.971715 34.971715 0 0 1 36.50841 895.998159 35.789767 35.789767 0 0 1 10.944291 885.056716 35.789767 35.789767 0 0 1 0.002848 859.492597 34.971715 34.971715 0 0 1 0.718643 852.488028zM921.896125 474.752599a35.789767 35.789767 0 0 1 0 71.579534h-196.945977l288.567781 288.567781a35.789767 35.789767 0 0 1-50.616957 50.616956L690.949869 613.719152v163.610365a35.789767 35.789767 0 1 1-71.579534 0v-259.782582a39.215359 39.215359 0 0 1-0.664667-7.004569 37.119101 37.119101 0 0 1 36.454434-36.505563 34.971715 34.971715 0 0 1 7.004569 0.715796zM417.925073 273.153952a35.789767 35.789767 0 0 1-25.564119 10.839187 34.869459 34.869459 0 0 1-6.953441-0.715795H125.727187a35.789767 35.789767 0 0 1 0-71.579535h163.610365L10.484137-66.899965a35.789767 35.789767 0 0 1 50.616956-50.616957l295.367837 295.367837v-196.894848a35.789767 35.789767 0 0 1 71.579534 0v259.526941a35.789767 35.789767 0 0 1-10.225647 32.670944zM1022.874396 175.550144a35.789767 35.789767 0 0 1-71.579534 0v-230.79287h-230.741742a35.789767 35.789767 0 0 1 0-71.579535h259.578069a39.113103 39.113103 0 0 1 6.95344-0.664667 37.016845 37.016845 0 0 1 36.505563 36.454434 34.971715 34.971715 0 0 1-0.715796 7.004569z"  horiz-adv-x="1025" />
      
      <glyph glyph-name="jian" unicode="&#58977;" d="M512 892.1088A508.1088 508.1088 0 1 1 1020.1088 384 508.672 508.672 0 0 1 512 892.1088z m0-944.5376A436.4288 436.4288 0 1 0 948.4288 384 436.9408 436.9408 0 0 0 512-52.4288zM823.7568 419.84H200.2432a35.84 35.84 0 0 1 0-71.68h623.5136a35.84 35.84 0 0 1 0 71.68z"  horiz-adv-x="1024" />
      
      <glyph glyph-name="xinzeng" unicode="&#58978;" d="M996.1984 419.84h-440.32V860.16a35.84 35.84 0 0 1-71.68 0v-440.32h-440.32a35.84 35.84 0 1 1 0-71.68h440.32v-440.32a35.84 35.84 0 0 1 71.68 0v440.32h440.32a35.84 35.84 0 0 1 0 71.68z"  horiz-adv-x="1032" />
      
      <glyph glyph-name="shengxu" unicode="&#58979;" d="M932.4032 894.9248H87.04a87.04 87.04 0 0 1-87.04-87.04v-847.7696a87.04 87.04 0 0 1 87.04-87.04h845.3632a87.04 87.04 0 0 1 87.04 87.04V807.8848a87.04 87.04 0 0 1-87.04 87.04z m15.36-934.8096a15.36 15.36 0 0 0-15.36-15.36H87.04a15.36 15.36 0 0 0-15.36 15.36V807.8848a15.36 15.36 0 0 0 15.36 15.36h845.3632a15.36 15.36 0 0 0 15.36-15.36zM817.1008 647.2704H446.976a35.84 35.84 0 0 1 0-71.68h370.1248a35.84 35.84 0 0 1 0 71.68zM817.1008 403.5072H446.976a35.84 35.84 0 0 1 0-71.68h370.1248a35.84 35.84 0 0 1 0 71.68zM817.1008 159.744H446.976a35.84 35.84 0 0 1 0-71.68h370.1248a35.84 35.84 0 0 1 0 71.68zM334.9504 623.8208V624.64a35.84 35.84 0 0 1-64.8192 20.992L152.9856 528.3328a35.84 35.84 0 0 1 50.688-50.688l59.5968 59.5968v-413.3376a35.84 35.84 0 0 1 71.68 0V623.7696z"  horiz-adv-x="1024" />
      
      <glyph glyph-name="shaixuan-02" unicode="&#58980;" d="M826.368407 895.9489H94.255896a87.739037 87.739037 0 0 1-71.949076-137.97053l0.766503-1.073104L287.159137 433.441024v-512.892669a48.442986 48.442986 0 0 1 77.876699-38.580649L593.760314 56.117175a85.235127 85.235127 0 0 1 33.215127 67.247858V433.185523l269.451335 322.391138 1.890707 2.452809a87.739037 87.739037 0 0 1-71.949076 137.97053z m13.950354-96.017269l-276.554262-330.82267c-0.715403-0.868703-1.379705-1.788507-2.044008-2.708311-0.664303-0.970904-1.277505-1.992908-1.839607-3.014911l-0.715403-1.481906-0.817603-1.686306c-0.255501-0.613202-0.459902-1.226405-0.664303-1.890708s-0.357701-0.919804-0.511002-1.379705a21.513183 21.513183 0 0 1-0.613202-2.452809 5.365521 5.365521 0 0 1 0-0.970904 36.281139 36.281139 0 0 1-0.715403-7.051827V123.365033a13.337151 13.337151 0 0 0-5.110019-10.52664L358.699411-32.950467V446.164973v1.073104 2.401709 1.533006 1.941807c0 0.664303-0.306601 1.124204-0.408801 1.686307s0 1.124204-0.459902 1.686306-0.408802 1.175305-0.613202 1.788507a12.723949 12.723949 0 0 1-0.562102 1.481906c0 0.664303-0.562102 1.277505-0.817604 1.890707s-0.408802 0.868703-0.664302 1.277505a18.600471 18.600471 0 0 1-1.175305 1.992908l-0.613202 1.022004a28.922711 28.922711 0 0 1-1.737407 2.401709l-0.357701 0.459902-270.88214 331.027071a16.198762 16.198762 0 0 0 13.848153 24.579194h732.112511a16.198762 16.198762 0 0 0 13.950354-24.476994zM956.929408 420.717075a35.770137 35.770137 0 0 1-35.770137-35.770137V-91.255791a35.770137 35.770137 0 0 1 71.540275 0V384.946938a35.770137 35.770137 0 0 1-35.770138 35.770137zM828.412415 212.739277a35.770137 35.770137 0 0 1-35.770137-35.770138V-91.255791a35.770137 35.770137 0 0 1 71.540274 0v268.22493a35.770137 35.770137 0 0 1-35.770137 35.770138z"  horiz-adv-x="1024" />
      
      <glyph glyph-name="queding" unicode="&#58981;" d="M405.248-9.7792a98.8672 98.8672 0 0 0-62.9248 22.528l-2.5088 2.304L12.4928 341.504a35.84 35.84 0 1 0 50.5856 50.7392L389.12 67.2256a27.4944 27.4944 0 0 1 36.4032 3.328L960 644.8128a35.84 35.84 0 1 0 52.4288-48.8448L477.7984 21.7088a98.9184 98.9184 0 0 0-72.5504-31.488z"  horiz-adv-x="1024" />
      
      <glyph glyph-name="yulan" unicode="&#58982;" d="M1016.064 389.888c-38.9632 45.312-246.2208 271.36-500.48 271.36S54.0672 435.2 15.36 389.888a46.08 46.08 0 0 1 0-60.416c38.9632-45.3632 246.2208-271.36 500.48-271.36s461.5168 226.2528 500.48 271.36a46.08 46.08 0 0 1-0.256 60.416z m-208.2816-153.0368c-100.352-71.2192-198.656-107.52-292.1984-107.52s-191.8464 35.84-292.1984 107.52a920.4736 920.4736 0 0 0-139.2128 122.88 914.8416 914.8416 0 0 0 139.2128 122.88c100.352 71.2192 198.656 107.52 292.1984 107.52s191.8464-36.1472 292.1984-107.52a914.8416 914.8416 0 0 0 139.2128-122.88 920.4736 920.4736 0 0 0-139.2128-122.88zM516.1984 525.312a165.632 165.632 0 1 1 165.5808-165.632 165.7856 165.7856 0 0 1-165.5808 165.632z m0-259.5328a93.952 93.952 0 1 0 93.9008 93.9008 94.0032 94.0032 0 0 0-93.9008-93.9008z"  horiz-adv-x="1027" />
      
      <glyph glyph-name="zhengli" unicode="&#58983;" d="M995.84 497.8176a35.84 35.84 0 0 1-70.0928-14.9504 426.7008 426.7008 0 0 0 9.216-88.1664A420.864 420.864 0 0 0 514.56-25.6a416.6144 416.6144 0 0 0-270.7456 98.7648h97.28a35.84 35.84 0 1 1 0 71.68H155.4944a35.84 35.84 0 0 1-35.84-35.84V-76.8a35.84 35.84 0 0 1 71.68 0v100.4032a492.1344 492.1344 0 0 1 815.3088 371.0976 496.64 496.64 0 0 1-10.8032 103.1168zM121.7024 244.6336a420.4544 420.4544 0 0 0 702.0544 434.8928h-107.52a35.84 35.84 0 0 1 0-71.68h185.7024a35.84 35.84 0 0 1 35.84 35.84V829.44a35.84 35.84 0 1 1-71.68 0v-90.2144a492.2368 492.2368 0 0 1-811.3664-520.192 35.84 35.84 0 0 1 33.4848-23.04 36.2496 36.2496 0 0 1 12.8 2.3552 35.84 35.84 0 0 1 20.6848 46.2848z"  horiz-adv-x="1024" />
      
      <glyph glyph-name="shujuyuan" unicode="&#58984;" d="M231.5264 424.192m-40.96 0a40.96 40.96 0 1 1 81.92 0 40.96 40.96 0 1 1-81.92 0ZM231.5264 93.952m-40.96 0a40.96 40.96 0 1 1 81.92 0 40.96 40.96 0 1 1-81.92 0ZM1025.1264 713.984c0 39.168-28.672 94.4128-165.0176 135.3216-93.184 27.9552-216.4224 43.3664-346.9824 43.3664s-253.8496-15.36-347.0336-43.3664C29.7472 808.3968 1.1264 753.152 1.1264 713.984v-661.9136c0.9728-39.0144 30.72-93.1328 164.9664-133.12 93.184-27.9552 216.4224-43.3664 347.0336-43.3664s253.7984 15.36 346.9824 43.3664c134.144 40.2432 163.84 94.3616 164.9664 133.12V713.472s0.0512 0.4096 0.0512 0.512z m-512 107.008c290.5088 0 440.32-75.008 440.32-107.008s-149.8112-107.008-440.32-107.008-440.32 75.008-440.32 107.008 149.8112 107.008 440.32 107.008z m0-873.984c-290.5088 0-440.32 75.008-440.32 107.008V286.72a435.456 435.456 0 0 1 93.2864-38.5024C259.2768 220.16 382.5152 204.8 513.1264 204.8s253.7984 15.36 346.9824 43.3152a437.1456 437.1456 0 0 1 93.3376 38.6048v-232.8576c0-31.8464-149.6064-106.8544-440.32-106.8544z m0 329.728c-290.5088 0-440.32 75.008-440.32 107.008V617.1136A435.456 435.456 0 0 1 166.0928 578.56c93.184-27.9552 216.4224-43.3152 347.0336-43.3152s253.7984 15.36 346.9824 43.3152a437.1456 437.1456 0 0 1 93.3376 38.5024v-233.3696c0-31.9488-149.6064-107.2128-440.32-107.2128z"  horiz-adv-x="1025" />
      
    </font>
</defs>
</svg>
